<mxfile host="app.diagrams.net" modified="2024-01-12T04:12:05.746Z" agent="Mozilla/5.0 (Macintosh; Intel Mac OS X 10_15_7) AppleWebKit/537.36 (KHTML, like Gecko) Chrome/120.0.0.0 Safari/537.36" etag="iXupyPgD77G8TuWBSIDe" version="22.1.18" type="device">
  <diagram name="第 1 页" id="pq7JyjLnyHUmeRn2MOJr">
    <mxGraphModel dx="1434" dy="786" grid="1" gridSize="10" guides="1" tooltips="1" connect="1" arrows="1" fold="1" page="1" pageScale="1" pageWidth="827" pageHeight="1169" math="0" shadow="0">
      <root>
        <mxCell id="0" />
        <mxCell id="1" parent="0" />
        <mxCell id="zzQcJuubzMULywM2BBdS-26" value="共享服务管理系统外部接口关系图" style="rounded=0;html=1;align=center;labelPosition=center;verticalLabelPosition=top;verticalAlign=bottom;spacing=-32;fontSize=22;" parent="1" vertex="1">
          <mxGeometry x="50" y="50" width="950" height="560" as="geometry" />
        </mxCell>
        <mxCell id="zzQcJuubzMULywM2BBdS-1" value="&lt;font style=&quot;font-size: 20px;&quot;&gt;共享服务管理系统&lt;/font&gt;" style="rounded=0;whiteSpace=wrap;html=1;" parent="1" vertex="1">
          <mxGeometry x="140" y="130" width="490" height="130" as="geometry" />
        </mxCell>
        <mxCell id="zzQcJuubzMULywM2BBdS-4" value="&lt;p style=&quot;margin: 0pt 0pt 0.0001pt; text-indent: 10pt; line-height: 28px; font-family: 仿宋; font-size: 20px; text-align: start;&quot; class=&quot;MsoNormal&quot;&gt;LHGK安全防护系统&lt;span style=&quot;&quot;&gt;平台&lt;/span&gt;&lt;/p&gt;" style="rounded=0;whiteSpace=wrap;html=1;" parent="1" vertex="1">
          <mxGeometry x="460" y="410" width="240" height="120" as="geometry" />
        </mxCell>
        <mxCell id="zzQcJuubzMULywM2BBdS-5" value="&lt;p style=&quot;margin: 0pt 0pt 0.0001pt; text-indent: 10pt; line-height: 28px; font-family: 仿宋; text-align: start;&quot; class=&quot;MsoNormal&quot;&gt;&lt;font style=&quot;font-size: 20px;&quot;&gt;综合性公用BC基础系统平台&lt;/font&gt;&lt;/p&gt;" style="rounded=0;whiteSpace=wrap;html=1;" parent="1" vertex="1">
          <mxGeometry x="150" y="410" width="280" height="120" as="geometry" />
        </mxCell>
        <mxCell id="zzQcJuubzMULywM2BBdS-10" value="" style="endArrow=classic;startArrow=none;html=1;rounded=0;entryX=0.908;entryY=1.012;entryDx=0;entryDy=0;entryPerimeter=0;strokeWidth=3;startFill=0;exitX=0.5;exitY=0;exitDx=0;exitDy=0;" parent="1" edge="1">
          <mxGeometry width="50" height="50" relative="1" as="geometry">
            <mxPoint x="606" y="410" as="sourcePoint" />
            <mxPoint x="605.9200000000001" y="261.55999999999995" as="targetPoint" />
          </mxGeometry>
        </mxCell>
        <mxCell id="zzQcJuubzMULywM2BBdS-11" value="安全资源接口" style="edgeLabel;html=1;align=center;verticalAlign=middle;resizable=0;points=[];fontSize=14;" parent="zzQcJuubzMULywM2BBdS-10" vertex="1" connectable="0">
          <mxGeometry x="0.0483" y="-1" relative="1" as="geometry">
            <mxPoint as="offset" />
          </mxGeometry>
        </mxCell>
        <mxCell id="zzQcJuubzMULywM2BBdS-14" value="" style="endArrow=classic;startArrow=none;html=1;rounded=0;entryX=0.157;entryY=1.005;entryDx=0;entryDy=0;entryPerimeter=0;strokeWidth=3;startFill=0;exitX=0.421;exitY=0.004;exitDx=0;exitDy=0;exitPerimeter=0;" parent="1" edge="1">
          <mxGeometry width="50" height="50" relative="1" as="geometry">
            <mxPoint x="180.0000000000001" y="410" as="sourcePoint" />
            <mxPoint x="182.12000000000006" y="259.52" as="targetPoint" />
          </mxGeometry>
        </mxCell>
        <mxCell id="zzQcJuubzMULywM2BBdS-15" value="网络资源接口" style="edgeLabel;html=1;align=center;verticalAlign=middle;resizable=0;points=[];fontSize=14;" parent="zzQcJuubzMULywM2BBdS-14" vertex="1" connectable="0">
          <mxGeometry x="0.0483" y="-1" relative="1" as="geometry">
            <mxPoint as="offset" />
          </mxGeometry>
        </mxCell>
        <mxCell id="zzQcJuubzMULywM2BBdS-17" value="" style="endArrow=classic;startArrow=none;html=1;rounded=0;strokeWidth=3;startFill=0;exitX=0;exitY=0.25;exitDx=0;exitDy=0;entryX=0;entryY=0.5;entryDx=0;entryDy=0;edgeStyle=orthogonalEdgeStyle;" parent="1" source="zzQcJuubzMULywM2BBdS-5" target="zzQcJuubzMULywM2BBdS-1" edge="1">
          <mxGeometry width="50" height="50" relative="1" as="geometry">
            <mxPoint x="100.00000000000006" y="406.0799999999999" as="sourcePoint" />
            <mxPoint x="100.89999999999992" y="260" as="targetPoint" />
            <Array as="points">
              <mxPoint x="90" y="440" />
              <mxPoint x="90" y="195" />
            </Array>
          </mxGeometry>
        </mxCell>
        <mxCell id="zzQcJuubzMULywM2BBdS-18" value="计算资源接口" style="edgeLabel;html=1;align=center;verticalAlign=middle;resizable=0;points=[];fontSize=14;" parent="zzQcJuubzMULywM2BBdS-17" vertex="1" connectable="0">
          <mxGeometry x="0.0483" y="-1" relative="1" as="geometry">
            <mxPoint as="offset" />
          </mxGeometry>
        </mxCell>
        <mxCell id="7v0hvFD1F2ec3wBFA-_k-1" value="&lt;p style=&quot;margin: 0pt 0pt 0.0001pt; text-indent: 10pt; line-height: 28px; font-family: 仿宋; font-size: 20px; text-align: start;&quot; class=&quot;MsoNormal&quot;&gt;&lt;font style=&quot;font-size: 20px;&quot; face=&quot;仿宋&quot;&gt;第三方系统&lt;/font&gt;&lt;font style=&quot;font-size: 20px;&quot; face=&quot;仿宋&quot;&gt;/设备&lt;/font&gt;&lt;/p&gt;" style="rounded=0;whiteSpace=wrap;html=1;horizontal=1;textDirection=ltr;" parent="1" vertex="1">
          <mxGeometry x="830" y="130" width="110" height="400" as="geometry" />
        </mxCell>
        <mxCell id="7v0hvFD1F2ec3wBFA-_k-3" value="" style="endArrow=classic;startArrow=none;html=1;rounded=0;entryX=0.157;entryY=1.005;entryDx=0;entryDy=0;entryPerimeter=0;strokeWidth=3;startFill=0;exitX=0.421;exitY=0.004;exitDx=0;exitDy=0;exitPerimeter=0;" parent="1" edge="1">
          <mxGeometry width="50" height="50" relative="1" as="geometry">
            <mxPoint x="272.0000000000001" y="410" as="sourcePoint" />
            <mxPoint x="274.12000000000006" y="259.52" as="targetPoint" />
          </mxGeometry>
        </mxCell>
        <mxCell id="7v0hvFD1F2ec3wBFA-_k-4" value="数据采集接口" style="edgeLabel;html=1;align=center;verticalAlign=middle;resizable=0;points=[];fontSize=14;" parent="7v0hvFD1F2ec3wBFA-_k-3" vertex="1" connectable="0">
          <mxGeometry x="0.0483" y="-1" relative="1" as="geometry">
            <mxPoint as="offset" />
          </mxGeometry>
        </mxCell>
        <mxCell id="7v0hvFD1F2ec3wBFA-_k-5" value="" style="endArrow=none;startArrow=classic;html=1;rounded=0;entryX=-0.019;entryY=0.081;entryDx=0;entryDy=0;entryPerimeter=0;strokeWidth=3;startFill=1;exitX=1;exitY=0.25;exitDx=0;exitDy=0;endFill=0;dashed=1;" parent="1" source="zzQcJuubzMULywM2BBdS-1" target="7v0hvFD1F2ec3wBFA-_k-1" edge="1">
          <mxGeometry width="50" height="50" relative="1" as="geometry">
            <mxPoint x="721.92" y="327.79" as="sourcePoint" />
            <mxPoint x="719.92" y="179.79000000000002" as="targetPoint" />
          </mxGeometry>
        </mxCell>
        <mxCell id="7v0hvFD1F2ec3wBFA-_k-6" value="云计算服务" style="edgeLabel;html=1;align=center;verticalAlign=middle;resizable=0;points=[];fontSize=14;" parent="7v0hvFD1F2ec3wBFA-_k-5" vertex="1" connectable="0">
          <mxGeometry x="0.0483" y="-1" relative="1" as="geometry">
            <mxPoint as="offset" />
          </mxGeometry>
        </mxCell>
        <mxCell id="7v0hvFD1F2ec3wBFA-_k-7" value="" style="endArrow=classic;startArrow=none;html=1;rounded=0;entryX=0.157;entryY=1.005;entryDx=0;entryDy=0;entryPerimeter=0;strokeWidth=3;startFill=0;exitX=0.421;exitY=0.004;exitDx=0;exitDy=0;exitPerimeter=0;" parent="1" edge="1">
          <mxGeometry width="50" height="50" relative="1" as="geometry">
            <mxPoint x="376.0000000000001" y="410.48" as="sourcePoint" />
            <mxPoint x="378.12000000000006" y="260" as="targetPoint" />
          </mxGeometry>
        </mxCell>
        <mxCell id="7v0hvFD1F2ec3wBFA-_k-8" value="资源监控接口" style="edgeLabel;html=1;align=center;verticalAlign=middle;resizable=0;points=[];fontSize=14;" parent="7v0hvFD1F2ec3wBFA-_k-7" vertex="1" connectable="0">
          <mxGeometry x="0.0483" y="-1" relative="1" as="geometry">
            <mxPoint as="offset" />
          </mxGeometry>
        </mxCell>
        <mxCell id="7v0hvFD1F2ec3wBFA-_k-9" value="&lt;br&gt;" style="edgeLabel;html=1;align=center;verticalAlign=middle;resizable=0;points=[];" parent="7v0hvFD1F2ec3wBFA-_k-7" vertex="1" connectable="0">
          <mxGeometry x="0.0617" y="7" relative="1" as="geometry">
            <mxPoint as="offset" />
          </mxGeometry>
        </mxCell>
        <mxCell id="7v0hvFD1F2ec3wBFA-_k-10" value="" style="endArrow=classic;startArrow=none;html=1;rounded=0;entryX=0.157;entryY=1.005;entryDx=0;entryDy=0;entryPerimeter=0;strokeWidth=3;startFill=0;exitX=0.421;exitY=0.004;exitDx=0;exitDy=0;exitPerimeter=0;" parent="1" edge="1">
          <mxGeometry width="50" height="50" relative="1" as="geometry">
            <mxPoint x="503.9400000000001" y="410.48" as="sourcePoint" />
            <mxPoint x="506.06000000000006" y="260" as="targetPoint" />
          </mxGeometry>
        </mxCell>
        <mxCell id="7v0hvFD1F2ec3wBFA-_k-11" value="资源监控接口" style="edgeLabel;html=1;align=center;verticalAlign=middle;resizable=0;points=[];fontSize=14;" parent="7v0hvFD1F2ec3wBFA-_k-10" vertex="1" connectable="0">
          <mxGeometry x="0.0483" y="-1" relative="1" as="geometry">
            <mxPoint as="offset" />
          </mxGeometry>
        </mxCell>
        <mxCell id="7v0hvFD1F2ec3wBFA-_k-12" value="&lt;br&gt;" style="edgeLabel;html=1;align=center;verticalAlign=middle;resizable=0;points=[];" parent="7v0hvFD1F2ec3wBFA-_k-10" vertex="1" connectable="0">
          <mxGeometry x="0.0617" y="7" relative="1" as="geometry">
            <mxPoint as="offset" />
          </mxGeometry>
        </mxCell>
        <mxCell id="7v0hvFD1F2ec3wBFA-_k-15" value="" style="endArrow=none;startArrow=classic;html=1;rounded=0;entryX=-0.015;entryY=0.289;entryDx=0;entryDy=0;entryPerimeter=0;strokeWidth=3;startFill=1;exitX=1;exitY=0.25;exitDx=0;exitDy=0;endFill=0;dashed=1;" parent="1" target="7v0hvFD1F2ec3wBFA-_k-1" edge="1">
          <mxGeometry width="50" height="50" relative="1" as="geometry">
            <mxPoint x="630" y="241" as="sourcePoint" />
            <mxPoint x="848" y="240" as="targetPoint" />
          </mxGeometry>
        </mxCell>
        <mxCell id="7v0hvFD1F2ec3wBFA-_k-16" value="云安全服务" style="edgeLabel;html=1;align=center;verticalAlign=middle;resizable=0;points=[];fontSize=14;" parent="7v0hvFD1F2ec3wBFA-_k-15" vertex="1" connectable="0">
          <mxGeometry x="0.0483" y="-1" relative="1" as="geometry">
            <mxPoint as="offset" />
          </mxGeometry>
        </mxCell>
      </root>
    </mxGraphModel>
  </diagram>
</mxfile>
